<?xml version="1.0" standalone="no"?>
<!DOCTYPE svg PUBLIC "-//W3C//DTD SVG 20010904//EN"
 "http://www.w3.org/TR/2001/REC-SVG-20010904/DTD/svg10.dtd">
<svg version="1.0" xmlns="http://www.w3.org/2000/svg"
 width="512.000000pt" height="512.000000pt" viewBox="0 0 512.000000 512.000000"
 preserveAspectRatio="xMidYMid meet">
<metadata>
Created by potrace 1.14, written by Peter Selinger 2001-2017
</metadata>
<g transform="translate(0.000000,512.000000) scale(0.100000,-0.100000)"
fill="#000000" stroke="none">
<path d="M2506 5089 c-14 -17 -26 -36 -26 -43 0 -25 -142 -281 -170 -306 -3
-3 -23 -30 -45 -60 -22 -30 -42 -57 -45 -60 -3 -3 -29 -34 -59 -70 -88 -106
-300 -310 -409 -393 -56 -43 -195 -138 -309 -212 -308 -199 -383 -250 -517
-356 -360 -285 -536 -555 -599 -920 -14 -79 -16 -380 -3 -439 3 -14 8 -47 11
-75 14 -125 81 -342 138 -450 6 -11 17 -33 26 -50 30 -61 113 -177 174 -242
123 -132 312 -248 479 -293 103 -28 126 -31 253 -34 311 -8 605 117 851 361
52 51 94 89 94 85 0 -12 -39 -162 -55 -207 -16 -47 -71 -187 -84 -212 -44 -88
-61 -118 -105 -188 -132 -211 -335 -408 -552 -538 -114 -69 -288 -146 -439
-195 -131 -43 -152 -53 -166 -78 -22 -38 -9 -86 26 -102 40 -18 3153 -16 3177
2 25 19 39 62 29 89 -12 32 -28 42 -91 63 -80 26 -322 150 -420 216 -369 248
-649 595 -797 988 -12 30 -28 74 -37 98 -9 23 -13 42 -10 42 3 0 38 -30 77
-66 225 -208 518 -324 822 -326 157 -1 319 40 469 117 107 55 147 86 252 192
241 243 365 599 359 1037 -1 83 -5 160 -8 171 -2 11 -8 42 -11 68 -10 75 -70
245 -116 332 -140 264 -349 462 -812 772 -268 179 -404 274 -433 300 -11 10
-38 31 -60 48 -74 54 -360 349 -456 470 -144 179 -223 308 -270 434 -8 22 -23
38 -45 47 -48 20 -59 18 -88 -17z"/>
</g>
</svg>
